 http://img715.imageshack.us/img715/7131/mrpopperspenguins2011.jpg

Country.......: USA
Genre.........: Comedy, Family
Date release..: 16.06.2011 [World]
Director......: Mark Waters
Writers.......: Sean Anders, John Morris
Duration......: 87 min.
More..........: http://www.imdb.com/title/tt1396218
Trailer.......: http://www.imdb.com/video/imdb/vi1332583705
Trailer.......:

Pilot :
The life of a businessman begins to change after he inherits six penguins, and as he transforms his apartment into a winter wonderland, his professional side starts to unravel. 

Cats :
Jim Carrey   	 ...  	Mr. Popper
Carla Gugino 	... 	Amanda
Angela Lansbury 	... 	Mrs. Van Gundy
Ophelia Lovibond 	... 	Pippi
Madeline Carroll 	... 	Janie
Clark Gregg 	... 	Nat Jones
Jeffrey Tambor 	... 	Mr. Gremmins
David Krumholtz 	... 	Kent
Philip Baker Hall 	... 	Franklin
Maxwell Perry Cotton 	... 	Billy
James Tupper 	... 	Rick
Dominic Chianese 	... 	Reader
William Charles Mitchell 	... 	Yates (as William C. Mitchell)
Kelli Barrett 	... 	Tommys Mom
Dylan Clark Marshall 	... 	Young Tommy Popper #2 

Data Technical :
!!! SAMPLE !!!
Audio.....: English
Subtitles.: None
Format                           : AVI
Format/Info                      : Audio Video Interleave
File size                        : 893 MiB
Duration                         : 1h 27mn
Overall bit rate                 : 1 431 Kbps
Writing library                  : MPlayer
Video
ID                               : 0
Format                           : MPEG-4 Visual
Format profile                   : Advanced Simple@L5
Format settings, BVOP            : Yes
Format settings, QPel            : No
Format settings, GMC             : No warppoints
Format settings, Matrix          : Custom
Codec ID                         : XVID
Codec ID/Hint                    : XviD
Duration                         : 1h 27mn
Bit rate                         : 1 298 Kbps
Width                            : 680 pixels
Height                           : 372 pixels
Display aspect ratio             : 16:9
Frame rate                       : 25.000 fps
Color space                      : YUV
Chroma subsampling               : 4:2:0
Bit depth                        : 8 bits
Scan type                        : Progressive
Bits/(Pixel*Frame)               : 0.205
Stream size                      : 810 MiB (91%)
Writing library                  : XviD 1.2.1 (UTC 2008-12-04)
Audio
ID                               : 1
Format                           : AC-3
Format/Info                      : Audio Coding 3
Mode extension                   : CM (complete main)
Codec ID                         : 2000
Duration                         : 1h 27mn
Bit rate mode                    : Constant
Bit rate                         : 128 Kbps
Channel(s)                       : 2 channels
Channel positions                : Front: L R
Sampling rate                    : 48.0 KHz
Bit depth                        : 16 bits
Stream size                      : 79.8 MiB (9%)
Alignment                        : Aligned on interleaves
Interleave, duration             : 480 ms (12.00 video frames)
Interleave, preload duration     : 960 ms

Screen : 
http://img692.imageshack.us/img692/3474/mrpopperspenguins2011s1.jpg 
http://img191.imageshack.us/img191/7360/mrpopperspenguins2011s2.jpg 
http://img694.imageshack.us/img694/3316/mrpopperspenguins2011s3.jpg 
http://img705.imageshack.us/img705/2456/mrpopperspenguins2011s4.jpg 
http://img845.imageshack.us/img845/6743/mrpopperspenguins2011s5.jpg